<?xml version="1.0" encoding="UTF-8" standalone="no"?>
<!-- Created with Inkscape (http://www.inkscape.org/) -->

<svg
   width="210mm"
   height="297mm"
   viewBox="0 0 210 297"
   version="1.1"
   id="svg5"
   inkscape:version="1.2.2 (732a01da63, 2022-12-09)"
   sodipodi:docname="Rock.svg"
   inkscape:export-filename="OneDrive - dbhs.edu.in\Desktop\Rock.png"
   inkscape:export-xdpi="96"
   inkscape:export-ydpi="96"
   xmlns:inkscape="http://www.inkscape.org/namespaces/inkscape"
   xmlns:sodipodi="http://sodipodi.sourceforge.net/DTD/sodipodi-0.dtd"
   xmlns="http://www.w3.org/2000/svg"
   xmlns:svg="http://www.w3.org/2000/svg">
  <sodipodi:namedview
     id="namedview7"
     pagecolor="#505050"
     bordercolor="#eeeeee"
     borderopacity="1"
     inkscape:showpageshadow="0"
     inkscape:pageopacity="0"
     inkscape:pagecheckerboard="0"
     inkscape:deskcolor="#505050"
     inkscape:document-units="mm"
     showgrid="false"
     showguides="false"
     inkscape:zoom="0.50646226"
     inkscape:cx="814.47333"
     inkscape:cy="575.56115"
     inkscape:window-width="1920"
     inkscape:window-height="991"
     inkscape:window-x="-9"
     inkscape:window-y="-9"
     inkscape:window-maximized="1"
     inkscape:current-layer="layer1"
     inkscape:lockguides="true" />
  <defs
     id="defs2">
    <inkscape:path-effect
       effect="bspline"
       id="path-effect9134"
       is_visible="true"
       lpeversion="1"
       weight="33.333333"
       steps="2"
       helper_size="0"
       apply_no_weight="true"
       apply_with_weight="true"
       only_selected="false" />
    <inkscape:path-effect
       effect="bspline"
       id="path-effect9023"
       is_visible="true"
       lpeversion="1"
       weight="33.333333"
       steps="2"
       helper_size="0"
       apply_no_weight="true"
       apply_with_weight="true"
       only_selected="false" />
    <inkscape:path-effect
       effect="bspline"
       id="path-effect9017"
       is_visible="true"
       lpeversion="1"
       weight="33.333333"
       steps="2"
       helper_size="0"
       apply_no_weight="true"
       apply_with_weight="true"
       only_selected="false" />
    <inkscape:path-effect
       effect="bspline"
       id="path-effect9011"
       is_visible="true"
       lpeversion="1"
       weight="33.333333"
       steps="2"
       helper_size="0"
       apply_no_weight="true"
       apply_with_weight="true"
       only_selected="false" />
    <inkscape:path-effect
       effect="spiro"
       id="path-effect6121"
       is_visible="true"
       lpeversion="1" />
    <inkscape:path-effect
       effect="spiro"
       id="path-effect5337"
       is_visible="true"
       lpeversion="1" />
    <inkscape:path-effect
       effect="spiro"
       id="path-effect3879"
       is_visible="true"
       lpeversion="1" />
    <inkscape:path-effect
       effect="spiro"
       id="path-effect3603"
       is_visible="true"
       lpeversion="1" />
    <inkscape:path-effect
       effect="spiro"
       id="path-effect3328"
       is_visible="true"
       lpeversion="1" />
    <inkscape:path-effect
       effect="spiro"
       id="path-effect1662"
       is_visible="true"
       lpeversion="1" />
  </defs>
  <g
     inkscape:label="Layer 1"
     inkscape:groupmode="layer"
     id="layer1">
    <path
       style="fill:#2b1100;stroke:#552200;stroke-width:0.264583"
       d="m 41.075238,91.873122 c -0.269362,4.704435 0.796379,9.478028 3.041036,13.621188 2.244657,4.14316 5.661298,7.6431 9.749201,9.98688 4.087903,2.34378 8.834446,3.52417 13.544003,3.36818 4.709557,-0.15599 9.367588,-1.64788 13.291438,-4.25703 1.759132,-1.16973 3.37293,-2.55756 5.199131,-3.61954 1.8262,-1.06197 3.948564,-1.79406 6.037375,-1.47835 1.686997,0.25498 3.244863,1.20119 4.31297,2.53164 1.068106,1.33046 1.651565,3.02617 1.710541,4.7313 0.05898,1.70514 -0.394993,3.41386 -1.220219,4.90717 -0.825227,1.49331 -2.013767,2.77366 -3.393413,3.77743 -2.759293,2.00753 -6.208131,2.88116 -9.613801,3.094 -3.405671,0.21284 -6.815291,-0.1909 -10.212437,-0.51228 -4.962201,-0.46945 -9.94951,-0.7654 -14.861168,-1.61359 -4.911658,-0.8482 -9.78512,-2.27288 -14.055699,-4.84309 -4.270579,-2.57021 -7.91755,-6.3653 -9.692836,-11.02278 -0.887643,-2.32875 -1.296081,-4.84899 -1.100536,-7.33349 0.195546,-2.48449 1.003016,-4.92939 2.399447,-6.993593 0.03308,-0.0489 0.0665,-0.09761 0.102268,-0.14459 0.190809,-0.250626 0.446655,-0.448239 0.728476,-0.588945 0.281822,-0.140705 0.589315,-0.225821 0.900963,-0.271616 0.623295,-0.09159 1.257369,-0.028 1.885864,0.01536 0.628495,0.04336 1.271007,0.06493 1.877195,-0.106599 0.303094,-0.08576 0.59437,-0.220262 0.843629,-0.412854 0.249259,-0.192591 0.45549,-0.444736 0.575541,-0.735956 0.118089,-0.28646 0.15029,-0.607694 0.09141,-0.911894 -0.05888,-0.3042 -0.208615,-0.59022 -0.425061,-0.81193 -0.216445,-0.221711 -0.498784,-0.378276 -0.801482,-0.444447 -0.302697,-0.06617 -0.624612,-0.0417 -0.913827,0.06947 z"
       id="path6117"
       inkscape:path-effect="#path-effect6121"
       inkscape:original-d="m 41.075238,91.873122 c 11.404748,16.619308 21.179465,19.575798 39.625678,22.719218 18.368916,3.13024 11.155228,-6.02587 11.236506,-5.09789 0.08127,0.9279 -30.318321,15.7906 -18.416359,18.52926 82.633177,19.01399 -29.106477,-29.541983 -37.310792,-31.806543 -8.20432,-2.26456 -7.551042,3.48645 0.102268,-0.14459 3.090939,-1.466468 5.296489,0.289308 6.811668,-2.10061 1.515179,-2.389909 5.088293,-1.07799 -2.048958,-2.098796 z"
       sodipodi:nodetypes="csssssscc" />
    <path
       style="fill:#502d16;stroke:#552200;stroke-width:0.264583"
       d="m 47.098881,90.688431 c 4.123378,-4.452755 9.643229,-7.593211 15.577669,-8.862736 5.93444,-1.269524 12.256026,-0.662247 17.840256,1.713808 5.584231,2.376056 10.405283,6.509901 13.605576,11.666198 3.200293,5.156299 4.765027,11.311199 4.415864,17.369859 -0.05368,0.93138 -0.151794,1.86333 -0.369404,2.77052 -0.816451,3.40369 -3.325469,6.26881 -6.408773,7.9256 -3.083304,1.65678 -6.6885,2.18138 -10.17973,1.93036 -6.982461,-0.50205 -13.361099,-3.91317 -19.890042,-6.43898 -4.021945,-1.55594 -8.169217,-2.79368 -12.106373,-4.55317 -3.937157,-1.75949 -7.716214,-4.0987 -10.427208,-7.45243 -1.116507,-1.38121 -2.044222,-2.93353 -2.57617,-4.62804 -0.531948,-1.69451 -0.654691,-3.538137 -0.194353,-5.253488 0.383067,-1.427417 1.165583,-2.741489 2.217589,-3.779538 1.052006,-1.038048 2.369155,-1.800121 3.785211,-2.22326 1.521343,-0.454601 3.157616,-0.518769 4.709888,-0.184703 z"
       id="path1660"
       inkscape:path-effect="#path-effect1662"
       inkscape:original-d="m 47.098881,90.688431 c 17.208285,7.234407 34.293174,14.591679 51.439365,21.887129 17.146194,7.29544 -0.246005,1.84728 -0.369404,2.77052 -0.123399,0.92324 -24.318764,2.27825 -36.478545,3.41698 -12.159779,1.13873 -15.022124,-8.00347 -22.533581,-12.0056 -7.51146,-4.00213 -1.846749,-6.58742 -2.770523,-9.881528 -0.923772,-3.294107 4.00213,-4.0016 6.0028,-6.002798 2.000668,-2.001197 3.140189,-0.122869 4.709888,-0.184703 z" />
    <path
       style="fill:#784421;stroke:#552200;stroke-width:0.264583"
       d="m 47.098881,90.688431 c 4.085653,-4.541993 9.613474,-7.766812 15.578108,-9.087952 5.964633,-1.32114 12.337185,-0.732202 17.958666,1.659703 5.621482,2.391906 10.464661,6.575191 13.6487,11.789034 3.184039,5.213844 4.693513,11.432984 4.253891,17.526344 -0.07023,0.97344 -0.191978,1.95657 -0.554105,2.86287 -0.512055,1.28153 -1.498505,2.35363 -2.695858,3.03983 -1.197354,0.6862 -2.595565,0.99458 -3.975073,0.95604 -2.759015,-0.0771 -5.341149,-1.50805 -7.344005,-3.40717 -4.005712,-3.79825 -5.985445,-9.35554 -9.996259,-13.1484 -3.540466,-3.348071 -8.550245,-5.050429 -13.407663,-4.663151 -3.112633,0.248168 -6.111307,1.300014 -9.213756,1.653396 -1.551225,0.176695 -3.137685,0.175365 -4.65623,-0.18732 -1.518544,-0.362686 -2.970426,-1.104273 -4.029253,-2.251619 -0.82369,-0.89255 -1.398232,-2.039187 -1.491568,-3.250138 -0.04667,-0.605475 0.02703,-1.22169 0.231119,-1.793639 0.20409,-0.571949 0.539638,-1.098571 0.983398,-1.513125 0.625624,-0.584448 1.465106,-0.934723 2.320594,-0.968272 0.855488,-0.03355 1.719822,0.249909 2.389294,0.783569 z"
       id="path3324"
       inkscape:path-effect="#path-effect3328"
       inkscape:original-d="m 47.098881,90.688431 c 17.208285,7.234407 34.293174,14.591679 51.439365,21.887129 17.146194,7.29544 -0.430706,1.93963 -0.554105,2.86287 -0.123399,0.92324 -11.851414,-13.69843 -24.011195,-12.5597 -12.159779,1.13873 33.796574,-8.103418 -13.407663,-4.663151 -8.488601,0.618653 -16.975465,2.508561 -17.899239,-0.785543 -0.923772,-3.294107 -2.277721,-4.555704 -0.277051,-6.556902 2.000668,-2.001197 3.140189,-0.122869 4.709888,-0.184703 z"
       sodipodi:nodetypes="cssssssc" />
    <path
       style="fill:#552200;fill-opacity:1;stroke:#552200;stroke-width:0.264583"
       d="m 142.74687,68.554858 c 10.88364,0.435346 27.60091,1.131899 36.9607,-1.784903 9.35979,-2.916802 11.36234,-9.446852 10.79648,-15.106324 -0.56585,-5.659472 -3.70028,-10.448176 -5.9858,-13.2127 -2.28552,-2.764524 -3.72211,-3.504585 -5.31115,-4.331756 -1.58904,-0.827171 -3.33035,-1.74136 -7.96695,-1.088436 -4.63659,0.652924 -12.16777,2.873098 -20.5265,1.393007 -8.35873,-1.48009 -17.54434,-6.660599 -22.50745,-3.852586 -4.9631,2.808014 -5.70319,13.604586 -6.07323,21.136112 -0.37003,7.531527 -0.37003,11.797827 2.15516,14.017967 2.5252,2.22014 7.5751,2.394273 18.45874,2.829619 z"
       id="path9009"
       inkscape:path-effect="#path-effect9011"
       inkscape:original-d="m 136.91297,68.293639 c 16.71753,0.69682 33.4348,1.39337 50.15181,2.08966 2.00289,-6.53005 4.00544,-13.0601 6.00777,-19.59055 -3.13429,-4.78863 -6.26871,-9.577338 -9.40347,-14.366405 -1.4364,-0.739838 -2.87299,-1.479896 -4.30992,-2.220262 -1.74115,-0.913979 -3.48246,-1.828168 -5.22414,-2.742677 -7.53137,2.220572 -15.06255,4.440747 -22.59444,6.660788 -9.18571,-5.180449 -18.37132,-10.360959 -27.55738,-15.541837 -0.73982,10.796837 -1.47991,21.593409 -2.22026,32.389713 2.7e-4,4.26673 2.7e-4,8.53303 0,12.79916 5.05038,0.1744 10.10028,0.34854 15.15003,0.52241 z"
       sodipodi:nodetypes="ccccccccccc" />
    <path
       style="fill:#29180c;fill-opacity:1;stroke:#230e00;stroke-width:0.264583;stroke-opacity:1"
       d="m 145.27174,68.641921 c 8.35877,0.348283 25.07604,1.044836 34.25882,-1.891197 9.18279,-2.936034 10.8313,-9.504433 11.07358,-12.782209 0.24228,-3.277775 -0.92202,-3.264343 -1.94563,-2.550193 -1.02362,0.71415 -1.90612,2.12886 -3.81055,2.983224 -1.90444,0.854365 -4.83087,1.148383 -11.57569,3.783746 -6.74481,2.635363 -17.30706,7.611778 -26.06596,7.978748 -8.75889,0.366971 -15.71373,-3.875883 -19.65364,-6.50947 -3.93991,-2.633587 -4.86469,-3.65791 -5.32721,-2.036845 -0.46252,1.621064 -0.46252,5.887364 2.06267,8.107504 2.5252,2.22014 7.5751,2.394273 10.09997,2.481336 2.52487,0.08706 2.52487,0.08707 10.88364,0.435356 z"
       id="path9130"
       inkscape:path-effect="#path-effect9134"
       inkscape:original-d="m 136.91297,68.293639 c 16.71753,0.69682 33.4348,1.39337 50.15181,2.08966 1.64888,-6.56853 3.29739,-13.13693 4.94574,-19.70599 -1.1641,0.0137 -2.3284,0.0271 -3.49303,0.0403 -0.88228,1.41506 -1.76478,2.82977 -2.6476,4.24429 -2.92634,0.2943 -5.85277,0.58832 -8.77965,0.88209 -10.56263,4.97699 -21.12488,9.9534 -31.68803,14.92985 -6.95484,-4.24275 -13.90967,-8.48561 -20.86491,-12.72881 -0.92452,-1.02406 -1.84931,-2.04838 -2.77436,-3.07297 2.7e-4,4.26673 2.7e-4,8.53303 0,12.79916 5.05038,0.1744 10.10028,0.34854 15.15003,0.52241 z"
       sodipodi:nodetypes="ccccccccccc" />
    <path
       style="fill:#784421;fill-opacity:1;stroke:#552200;stroke-width:0.264583"
       d="m 142.57743,49.099748 c 10.83766,-0.611267 27.5238,7.196132 36.91451,8.881482 9.39072,1.68535 11.48561,-2.751461 10.96594,-7.364266 -0.51968,-4.612805 -3.65411,-9.401509 -5.93963,-12.166033 -2.28552,-2.764524 -3.72211,-3.504585 -5.31115,-4.331756 -1.58904,-0.827171 -3.33035,-1.74136 -7.96695,-1.088436 -4.63659,0.652924 -12.16777,2.873098 -20.5265,1.393007 -8.35873,-1.48009 -17.54434,-6.660599 -22.50745,-3.852586 -4.9631,2.808014 -5.70319,13.604586 -6.07323,21.136112 -0.37003,7.531527 -0.37003,11.797827 2.12422,9.415766 2.49425,-2.382062 7.48258,-11.412023 18.32024,-12.02329 z"
       id="path9019"
       inkscape:path-effect="#path-effect9023"
       inkscape:original-d="m 136.72827,40.680766 c 16.68676,7.807833 33.3729,15.615233 50.05946,23.422683 2.09524,-4.43672 4.19014,-8.87353 6.28482,-13.3107 -3.13429,-4.78863 -6.26871,-9.577338 -9.40347,-14.366405 -1.4364,-0.739838 -2.87299,-1.479896 -4.30992,-2.220262 -1.74115,-0.913979 -3.48246,-1.828168 -5.22414,-2.742677 -7.53137,2.220572 -15.06255,4.440747 -22.59444,6.660788 -9.18571,-5.180449 -18.37132,-10.360959 -27.55738,-15.541837 -0.73982,10.796837 -1.47991,21.593409 -2.22026,32.389713 2.7e-4,4.26673 2.7e-4,8.53303 0,12.79916 4.98881,-9.03008 9.97715,-18.06004 14.96533,-27.090463 z"
       sodipodi:nodetypes="ccccccccccc" />
    <path
       style="fill:#a05a2c;fill-opacity:1;stroke:#9f3e00;stroke-width:0.264583;stroke-opacity:1"
       d="m 138.47839,40.16342 c 8.22586,-1.033241 21.15647,1.479489 31.34777,4.103802 10.1913,2.624313 17.64229,5.359882 19.49284,4.071722 1.85054,-1.28816 -1.89954,-6.600173 -4.49291,-9.626355 -2.59336,-3.026182 -4.02995,-3.766243 -5.61899,-4.593414 -1.58904,-0.827171 -3.33035,-1.74136 -7.96695,-1.088436 -4.63659,0.652924 -12.16777,2.873098 -20.5265,1.393007 -8.35873,-1.48009 -17.54434,-6.660599 -22.50745,-3.852586 -4.9631,2.808014 -5.70319,13.604586 -5.83181,18.233334 -0.12861,4.628747 0.35425,3.089854 2.35598,0.03061 2.00174,-3.059249 5.52216,-7.638437 13.74802,-8.671679 z"
       id="path9013"
       inkscape:path-effect="#path-effect9017"
       inkscape:original-d="m 133.77305,36.617333 c 12.93116,2.513051 25.86177,5.025783 38.79266,7.538354 7.4517,2.735992 14.90269,5.471562 22.35386,8.207032 -3.74998,-5.31197 -7.50006,-10.623986 -11.25049,-15.936375 -1.4364,-0.739838 -2.87299,-1.479896 -4.30992,-2.220262 -1.74115,-0.913979 -3.48246,-1.828168 -5.22414,-2.742677 -7.53137,2.220572 -15.06255,4.440747 -22.59444,6.660788 -9.18571,-5.180449 -18.37132,-10.360959 -27.55738,-15.541837 -0.73982,10.796837 -1.47991,21.593409 -2.22026,32.389713 0.48315,-1.53873 0.96602,-3.07762 1.44864,-4.61688 3.52083,-4.57911 7.04124,-9.158302 10.56147,-13.737856 z"
       sodipodi:nodetypes="ccccccccccc" />
    <path
       style="fill:#803300;fill-opacity:1;stroke:#803300;stroke-width:0.264583;stroke-opacity:1"
       d="m 162.39879,56.749529 c 0,0 -27.98228,-9.60447 -25.16558,0 2.8167,9.60448 25.16558,0 25.16558,0 z"
       id="path10076" />
    <path
       style="fill:#aa4400;fill-opacity:1;stroke:#823200;stroke-width:0.264583;stroke-opacity:1"
       d="m 143.2591,55.295009 c 0.36653,-0.0524 0.69567,-0.22274 1.03894,-0.34632 0.0985,-0.0354 0.20245,-0.0548 0.30014,-0.0923 0.10285,-0.0396 0.19753,-0.0984 0.30014,-0.13852 0.22838,-0.0894 0.48157,-0.15962 0.71572,-0.23088 0.0769,-0.0234 0.15671,-0.0384 0.23088,-0.0693 0.17248,-0.0719 -0.12635,-0.0362 0.13852,-0.0693 0.12306,-0.0154 0.24564,-0.023 0.36941,-0.0462 0.0697,-0.0131 0.13732,-0.0379 0.20779,-0.0462 0.24598,-0.0289 0.51382,0 0.76189,0 0.17078,0 0.53423,-0.009 0.71572,0.0231 0.11031,0.0197 0.21521,0.0626 0.32323,0.0923 0.37153,0.1025 0.74004,0.20897 1.1082,0.32323 0.32143,0.0998 0.64431,0.17262 0.96969,0.25396 0.2129,0.0532 0.41318,0.15047 0.62336,0.20779 0.0452,0.0123 0.0934,0.0108 0.13853,0.0231 0.15064,0.0411 0.30627,0.11631 0.46176,0.13853 0.0193,0.003 0.62946,0.0821 0.64645,0.0923 0.0633,0.038 0.36649,0.55536 0.39249,0.60028 0.0345,0.0596 0.0574,0.12537 0.0923,0.1847 -0.0143,0.14187 0.14671,0.18544 0.20779,0.27705 0.016,0.0239 0.0396,0.14402 0.0462,0.16162 0.0121,0.0322 0.0378,0.059 0.0462,0.0923 0.007,0.0299 0,0.0616 0,0.0923 0,0.28636 -0.0251,0.5335 -0.20779,0.76189 -0.034,0.0425 -0.081,0.0733 -0.11544,0.11544 -0.0351,0.043 -0.0552,0.0973 -0.0923,0.13853 -0.033,0.0366 -0.0806,0.0575 -0.11543,0.0923 -0.0196,0.0196 -0.0266,0.0496 -0.0462,0.0693 -0.10259,0.10259 -0.37898,0.154 -0.50793,0.1847 -0.10005,0.0231 -0.20009,0.0462 -0.30014,0.0693 -0.077,0.0308 -0.15046,0.0722 -0.23088,0.0924 -0.0448,0.0112 -0.0926,-0.005 -0.13852,0 -0.093,0.0103 -0.18405,0.0354 -0.27706,0.0462 -0.1073,0.0124 -0.21609,0.009 -0.32322,0.0231 -0.13176,0.017 -0.26016,0.0576 -0.39249,0.0693 -0.13033,0.0115 -0.26166,0 -0.39249,0 -0.36171,0 -0.72342,0 -1.08513,0 -0.7388,0 -1.47761,0 -2.21641,0 -0.5685,0 -1.16769,-0.0113 -1.73158,0.0693 -0.22286,0.0318 -0.44728,0.0582 -0.66954,0.0924 -0.0314,0.005 -0.0616,0.0154 -0.0923,0.0231 -0.10005,0.0154 -0.19942,0.0361 -0.30014,0.0462 -0.12253,0.0123 -0.24627,0 -0.36941,0 -0.0265,0 -0.3701,0.0124 -0.39249,0 -0.18601,-0.10334 -0.57301,-0.625 -0.64645,-0.71572 -0.0108,-0.0134 -0.009,-0.0361 -0.0231,-0.0462 -0.0726,-0.0528 -0.15692,-0.0877 -0.23088,-0.13853 -0.18527,-0.12738 -0.401,-0.30078 -0.57719,-0.43867 -0.20475,-0.16023 -0.50793,-0.35424 -0.50793,-0.64645 0,-0.0905 -0.0172,-0.18371 0.0693,-0.25397 0.27411,-0.22272 0.81713,-0.35085 1.13129,-0.50793 0.20984,-0.10492 0.21785,-0.1991 0.3694,-0.30014 0.0824,-0.0549 0.16999,-0.0755 0.25397,-0.13852 0.0138,-0.0103 0.009,-0.0366 0.0231,-0.0462 0.0128,-0.009 0.0334,0.009 0.0462,0 0.0143,-0.01 0.0109,-0.034 0.0231,-0.0462 0.0122,-0.0122 0.0366,-0.009 0.0462,-0.0231 0.009,-0.0128 -0.007,-0.0324 0,-0.0462 0.0456,-0.0911 0.10278,-0.0897 0.1847,-0.0693 z"
       id="path10923" />
    <path
       style="fill:#552200;fill-opacity:1;stroke:#483737;stroke-width:0.264583;stroke-opacity:1"
       d="m 130.08126,228.81764 c 9.92588,-26.12073 -22.87339,-39.61787 -22.87339,-39.61787 0,0 -10.823573,-62.8782 -29.876888,-29.87689 -19.053315,33.00131 0.09556,40.79031 -10.929729,40.79031 -11.025296,0 -32.18309,21.65185 -32.18309,21.65185 0,0 -19.007187,-1.52161 -11.493123,11.49313 7.514062,13.01473 46.266431,12.39705 46.266431,12.39705 0,0 70.108669,-6.89685 60.732329,-16.27318"
       id="path23445" />
    <path
       style="fill:#6f2c00;fill-opacity:1;stroke:#483737;stroke-width:0.264583;stroke-opacity:1"
       d="m 130.08126,228.81764 c 9.92588,-26.12073 -22.87339,-39.61787 -22.87339,-39.61787 0,0 -10.823573,-62.8782 -29.876888,-29.87689 -19.053315,33.00131 -1.863495,41.18212 -12.888784,41.18212 -11.025296,0 -20.82057,13.03201 -20.82057,13.03201 0,0 6.34017,3.67656 19.329345,10.3177 13.155991,6.72642 27.981916,7.4341 27.981916,7.4341 0,0 46.338801,6.52268 38.790911,-1.90677"
       id="path23449"
       sodipodi:nodetypes="ccsscscc" />
    <path
       style="fill:#8c3900;fill-opacity:1;stroke:#483737;stroke-width:0.264583;stroke-opacity:1"
       d="m 130.08126,228.81764 c 9.92588,-26.12073 -22.87339,-39.61787 -22.87339,-39.61787 0,0 -10.823573,-62.8782 -29.876888,-29.87689 -19.053315,33.00131 -2.124703,41.05152 -13.149992,41.05152 -23.119237,2.49263 72.84286,43.03692 65.54281,29.00764"
       id="path23447"
       sodipodi:nodetypes="ccscc" />
    <path
       style="fill:#993d00;fill-opacity:1;stroke:#483737;stroke-width:0.264583;stroke-opacity:1"
       d="m 131.77911,219.02236 c -2.22026,-22.20262 -24.57124,-29.82259 -24.57124,-29.82259 0,0 -10.823573,-62.8782 -29.876888,-29.87689"
       id="path24177"
       sodipodi:nodetypes="ccc" />
    <path
       style="fill:#451c00;fill-opacity:1;stroke:#483737;stroke-width:0.264583;stroke-opacity:1"
       d="m 92.418432,242.57232 c 0,0 -30.390546,-10.82758 -41.745046,-7.15709 -15.308442,4.94865 -15.450995,-1.02017 -17.887008,-3.9604 -2.601355,-3.1398 -2.508514,-8.31035 -1.376194,-8.71027 3.775543,-1.33346 -16.156628,-2.65354 -8.881049,9.9912 8.454259,14.69324 48.649783,12.6424 48.649783,12.6424"
       id="path24189"
       sodipodi:nodetypes="cssssc" />
  </g>
</svg>
