<?xml version="1.0" encoding="UTF-8" standalone="no"?>
<!-- Created with Inkscape (http://www.inkscape.org/) -->

<svg
   width="210mm"
   height="297mm"
   viewBox="0 0 210 297"
   version="1.1"
   id="svg5"
   inkscape:version="1.2.2 (732a01da63, 2022-12-09)"
   sodipodi:docname="Wind.svg"
   xmlns:inkscape="http://www.inkscape.org/namespaces/inkscape"
   xmlns:sodipodi="http://sodipodi.sourceforge.net/DTD/sodipodi-0.dtd"
   xmlns="http://www.w3.org/2000/svg"
   xmlns:svg="http://www.w3.org/2000/svg">
  <sodipodi:namedview
     id="namedview7"
     pagecolor="#505050"
     bordercolor="#eeeeee"
     borderopacity="1"
     inkscape:showpageshadow="0"
     inkscape:pageopacity="0"
     inkscape:pagecheckerboard="0"
     inkscape:deskcolor="#505050"
     inkscape:document-units="mm"
     showgrid="false"
     inkscape:zoom="2.025849"
     inkscape:cx="279.38903"
     inkscape:cy="467.21151"
     inkscape:window-width="1920"
     inkscape:window-height="991"
     inkscape:window-x="-9"
     inkscape:window-y="-9"
     inkscape:window-maximized="1"
     inkscape:current-layer="layer1" />
  <defs
     id="defs2">
    <inkscape:perspective
       sodipodi:type="inkscape:persp3d"
       inkscape:vp_x="-2.5858208 : 155.14925 : 1"
       inkscape:vp_y="0 : 1000 : 0"
       inkscape:vp_z="155.69776 : 168.07836 : 1"
       inkscape:persp3d-origin="105 : 99 : 1"
       id="perspective5409" />
  </defs>
  <g
     inkscape:label="Layer 1"
     inkscape:groupmode="layer"
     id="layer1">
    <path
       style="opacity:0.691983;fill:#c5c5c5;fill-opacity:0.910638;stroke:#d8dada;stroke-width:0.3;stroke-opacity:1"
       d="m 76.207246,110.68661 c 0,0 -24.905742,-1.82581 -1.743938,4.38037 23.161808,6.20619 -3.264148,2.75066 -3.264148,2.75066 9e-6,0 -14.258588,-2.1511 -9.835917,1.52436 13.564056,11.2724 -16.683349,1.91434 -11.323546,4.97166 15.017185,8.56603 -15.68957,4.27357 -18.227444,8.58584 -1.730872,2.94104 29.770545,1.14574 7.822277,6.47659 -9.535232,2.31595 14.579171,4.34707 8.946864,6.57064 -4.101714,1.61931 3.922005,1.06702 9.530529,0.94685 5.990254,-0.12835 -22.671151,7.1571 10.392789,5.15063 22.315683,-1.35422 15.790107,-2.06347 23.720607,-1.89982 15.953841,0.32922 40.677501,9.18371 47.520611,5.78721 6.59804,-3.27486 25.10583,-20.66146 14.12663,-39.678 -10.9792,-19.016529 -16.87307,-15.13836 -25.02948,-17.323861 -8.15641,-2.185504 -22.57026,7.815881 -29.913622,5.848231 -7.343359,-1.96765 -50.530104,-1.41996 -27.85129,1.78443 10.916489,1.54244 5.129078,4.12421 5.129078,4.12421 z"
       id="path2563"
       sodipodi:nodetypes="cscsssssssasssssc" />
    <path
       style="opacity:0.691983;fill:#4c4c4c;fill-opacity:0.306383;stroke:#929292;stroke-width:0.296151;stroke-opacity:0.26383"
       d="m 77.386642,110.6853 c 0,0 -24.268947,-1.82596 -1.699348,4.38071 22.569607,6.20665 -3.180689,2.75087 -3.180689,2.75087 8e-6,0 -13.894023,-2.15127 -9.584431,1.52446 13.217247,11.27328 -16.256787,1.9145 -11.034024,4.97205 14.633223,8.56669 -15.288417,4.2739 -17.761403,8.58649 -1.686617,2.94126 29.009368,1.14582 7.622277,6.47709 -9.291435,2.31613 14.206408,4.3474 8.718109,6.57114 -3.996841,1.61944 3.850833,1.53739 9.28685,0.94693 5.603123,-0.60862 -22.004082,7.71912 10.496468,3.58106 30.733449,-3.91307 18.811372,-0.74515 27.901728,-1.13325 4.318051,-0.18435 13.551811,2.6903 20.872621,4.44074 6.99897,1.67349 -3.14181,-0.47659 -10.2948,-20.83938 -5.69248,-16.20504 23.24461,-25.71057 11.29505,-30.30675 -7.70348,-2.963016 -13.44335,5.33745 -20.598955,3.1546 -7.100983,-2.16622 -49.136348,-2.43592 -27.03739,0.76871 10.637376,1.54256 4.997937,4.12453 4.997937,4.12453 z"
       id="path4348"
       sodipodi:nodetypes="cscsssssssssssssc" />
    <path
       style="fill:#b4b4b4;fill-opacity:0.782609;stroke:#d8dada;stroke-width:0.3;stroke-opacity:1"
       id="path840"
       sodipodi:type="arc"
       sodipodi:cx="126.88992"
       sodipodi:cy="128.92163"
       sodipodi:rx="19.024254"
       sodipodi:ry="18.47015"
       sodipodi:start="0.12315215"
       sodipodi:end="0.12122925"
       sodipodi:arc-type="arc"
       d="m 145.77009,131.19052 a 19.024254,18.47015 0 0 1 -21.20805,16.06246 19.024254,18.47015 0 0 1 -16.55453,-20.58262 19.024254,18.47015 0 0 1 21.19214,-16.08225 19.024254,18.47015 0 0 1 16.5749,20.56716"
       sodipodi:open="true" />
    <path
       id="path2392"
       style="opacity:0.691983;fill:#4c4c4c;fill-opacity:0.306383;stroke:#929292;stroke-width:0.163212;stroke-opacity:0.26383"
       d="m 95.795703,112.32958 c -5.662544,0.0167 -10.945693,0.74882 -4.556828,2.06395 4.920455,1.01281 2.312004,2.70785 2.312004,2.70785 0,0 -11.225868,-1.19902 -0.785999,2.87631 10.43984,4.07541 -1.471228,1.80661 -1.471228,1.80661 0,0 -6.426759,-1.4126 -4.433321,1.00097 6.113824,7.40211 -7.519954,1.25681 -5.104081,3.2644 6.768783,5.62496 -7.072138,2.80616 -8.216036,5.6379 -0.780169,1.93125 13.418751,0.7524 3.525883,4.25297 -4.297891,1.52082 6.571513,2.85482 4.032829,4.31498 -1.848795,1.06333 1.781354,1.00934 4.295862,0.62167 2.591797,-0.3994 -10.435704,4.83846 4.684468,3.38222 14.568314,-1.40305 9.263685,-0.86458 13.119614,-1.22938 1.64579,-0.1555 6.87055,0.94365 10.58385,1.32602 -0.12327,-0.18658 -0.22263,-0.38402 -0.28991,-0.6041 -0.0681,-0.20137 -0.12702,-0.4058 -0.20102,-0.60513 -0.0485,-0.13069 -0.0804,-0.25393 -0.0987,-0.36897 -1.26401,-1.39247 -2.72983,-3.62448 -4.20181,-7.15874 -6.53089,-15.68082 9.69004,-23.70042 7.04453,-22.65701 -3.66997,1.44747 -8.76684,1.57126 -12.07678,0.13797 -1.23174,-0.53339 -4.765801,-0.78055 -8.163327,-0.77049 z" />
    <path
       style="opacity:0.691983;fill:#4c4c4c;fill-opacity:0.178723;stroke:#929292;stroke-width:0.3;stroke-opacity:0.26383"
       d="m 33.061566,105.27985 c 11.021605,-1.91431 21.993523,-2.31996 33.061568,-0.73881"
       id="path5819" />
    <path
       style="opacity:0.691983;fill:#4c4c4c;fill-opacity:0.178723;stroke:#929292;stroke-width:0.3;stroke-opacity:0.26383"
       d="m 37.124999,111.5597 c 6.295642,-0.35806 12.391591,1.89492 18.47015,3.13993"
       id="path5821" />
    <path
       style="opacity:0.691983;fill:#4c4c4c;fill-opacity:0.178723;stroke:#929292;stroke-width:0.3;stroke-opacity:0.26383"
       d="m 32.138059,117.47015 c 11.753328,2.19129 7.239468,1.50915 13.483209,2.40112"
       id="path5823" />
    <path
       style="opacity:0.691983;fill:#4c4c4c;fill-opacity:0.178723;stroke:#929292;stroke-width:0.3;stroke-opacity:0.26383"
       d="m 24.249662,121.72756 c 1.970149,0 3.9403,0 5.910448,0"
       id="path5825" />
    <path
       style="opacity:0.691983;fill:#4c4c4c;fill-opacity:0.178723;stroke:#929292;stroke-width:0.3;stroke-opacity:0.26383"
       d="m 30.524443,123.45735 c 2.354401,0.73076 4.646504,1.64061 6.952018,2.50739"
       id="path5827" />
    <path
       style="opacity:0.691983;fill:#4c4c4c;fill-opacity:0.178723;stroke:#929292;stroke-width:0.3;stroke-opacity:0.26383"
       d="m 24.934701,126.88992 c 3.638378,-0.16128 6.380504,0.75711 10.343284,1.47761"
       id="path5829" />
    <path
       style="opacity:0.691983;fill:#4c4c4c;fill-opacity:0.178723;stroke:#929292;stroke-width:0.3;stroke-opacity:0.26383"
       d="m 21.294769,134.50942 c 2.462686,0 4.925372,0 7.388059,0"
       id="path5831" />
    <path
       style="opacity:0.691983;fill:#4c4c4c;fill-opacity:0.178723;stroke:#929292;stroke-width:0.3;stroke-opacity:0.26383"
       d="m 26.412313,138.52612 c 3.006125,0.37576 0.981637,0.16486 6.095149,0.3694"
       id="path5833" />
    <path
       style="opacity:0.691983;fill:#4c4c4c;fill-opacity:0.178723;stroke:#929292;stroke-width:0.3;stroke-opacity:0.26383"
       d="m 27.705224,139.63433 c 2.685458,1.10869 4.575704,0.4498 6.464552,0.1847"
       id="path5835"
       sodipodi:nodetypes="cc" />
    <path
       style="opacity:0.691983;fill:#4c4c4c;fill-opacity:0.178723;stroke:#929292;stroke-width:0.3;stroke-opacity:0.26383"
       d="m 25.488805,144.80597 c 1.847016,0.0616 3.69403,0.12313 5.541044,0.1847 0.307837,0 0.615672,0 0.923509,0"
       id="path5837" />
    <path
       style="opacity:0.691983;fill:#4c4c4c;fill-opacity:0.178723;stroke:#929292;stroke-width:0.3;stroke-opacity:0.26383"
       d="m 23.641791,149.0541 c 4.359603,1.82124 9.100859,1.47559 13.667909,1.29291"
       id="path5839" />
    <path
       style="opacity:0.691983;fill:#4c4c4c;fill-opacity:0.178723;stroke:#929292;stroke-width:0.3;stroke-opacity:0.26383"
       d="m 22.34888,153.11753 c 8.832361,1.67646 17.514919,-0.16065 26.042911,-1.10821"
       id="path5841" />
    <path
       style="opacity:0.691983;fill:#4c4c4c;fill-opacity:0.178723;stroke:#929292;stroke-width:0.3;stroke-opacity:0.26383"
       d="m 47.147927,108.00924 c 5.971783,-0.0471 12.041211,0.59915 17.892704,0.91422"
       id="path5843" />
    <path
       style="opacity:0.691983;fill:#4c4c4c;fill-opacity:0.178723;stroke:#929292;stroke-width:0.3;stroke-opacity:0.26383"
       d="m 10.056483,116.49848 c 26.251753,2.65169 17.248813,1.65533 27.034959,2.74268"
       id="path5845" />
    <path
       style="opacity:0.691983;fill:#4c4c4c;fill-opacity:0.178723;stroke:#929292;stroke-width:0.3;stroke-opacity:0.26383"
       d="m 14.170499,112.64567 c 12.313486,2.49299 9.426124,-0.94266 19.329345,0.13061"
       id="path5847"
       sodipodi:nodetypes="cc" />
    <path
       style="opacity:0.691983;fill:#4c4c4c;fill-opacity:0.178723;stroke:#929292;stroke-width:0.3;stroke-opacity:0.26383"
       d="m 17.239685,106.18079 c 3.927511,0.15143 7.831367,0.93242 11.75433,1.30603"
       id="path5849" />
    <path
       style="opacity:0.691983;fill:#4c4c4c;fill-opacity:0.178723;stroke:#929292;stroke-width:0.3;stroke-opacity:0.26383"
       d="m 12.929764,124.4653 c 5.096638,-0.3003 10.119666,0.0494 15.150026,0.65302"
       id="path5851" />
    <path
       style="opacity:0.691983;fill:#4c4c4c;fill-opacity:0.178723;stroke:#929292;stroke-width:0.3;stroke-opacity:0.26383"
       d="m 8.8810498,131.90971 c 0.1741382,0 0.3482766,0 0.5224148,0 4.3969904,0.13061 8.7939804,0.26121 13.1909714,0.39181"
       id="path5853" />
    <path
       style="opacity:0.691983;fill:#4c4c4c;fill-opacity:0.178723;stroke:#929292;stroke-width:0.3;stroke-opacity:0.26383"
       d="m 18.806929,138.4399 c 1.088364,0 2.176728,0 3.265092,0"
       id="path5855" />
    <path
       style="opacity:0.691983;fill:#4c4c4c;fill-opacity:0.178723;stroke:#929292;stroke-width:0.3;stroke-opacity:0.26383"
       d="m 12.276745,142.0968 c 4.875871,0.0871 9.751742,0.17414 14.627612,0.26121"
       id="path5857" />
    <path
       style="opacity:0.691983;fill:#4c4c4c;fill-opacity:0.178723;stroke:#929292;stroke-width:0.3;stroke-opacity:0.26383"
       d="m 14.366404,147.71276 c 1.314331,0.84141 2.959358,0.78033 4.440525,1.04483"
       id="path5859" />
    <path
       style="opacity:0.691983;fill:#4c4c4c;fill-opacity:0.178723;stroke:#929292;stroke-width:0.3;stroke-opacity:0.26383"
       d="m 9.8353543,151.13199 c 2.7653697,0.3546 5.5113757,0.64646 8.3115667,0.64646"
       id="path5863" />
    <path
       style="opacity:0.691983;fill:#4c4c4c;fill-opacity:0.178723;stroke:#929292;stroke-width:0.3;stroke-opacity:0.26383"
       d="m 8.3577424,136.58675 c 2.2325706,0 0.5542549,-0.009 5.0331156,0.13853"
       id="path5865" />
    <path
       id="path12055"
       style="opacity:0.691983;fill:#4c4c4c;fill-opacity:0.306383;stroke:#929292;stroke-width:0.160589;stroke-opacity:0.26383"
       d="m 96.453383,112.32827 c -3.878428,0 -10.544774,1.05783 -4.411171,2.06412 4.763174,1.01289 2.238102,2.70807 2.238102,2.70807 0,0 -10.867038,-1.19912 -0.760875,2.87654 10.106131,4.07574 -1.424201,1.80676 -1.424201,1.80676 0,0 -6.22133,-1.41272 -4.291612,1.00105 5.918398,7.40271 -7.279581,1.25691 -4.940931,3.26467 6.552422,5.62541 -6.846079,2.80639 -7.953413,5.63836 -0.755231,1.9314 12.989826,0.75246 3.413179,4.25331 -4.16051,1.52095 5.81497,2.87474 3.365182,4.34798 -1.724949,1.03734 5.028889,-0.1372 4.697286,0.58907 2.508951,-0.39943 -10.898787,3.62297 4.453104,3.07232 12.479367,-1.4488 9.521717,-1.6951 12.961457,-1.37641 1.59318,-0.15551 6.47136,1.40084 10.06596,1.78324 -0.11933,-0.1866 -0.21551,-0.38405 -0.28064,-0.60415 -0.0659,-0.20139 -0.12296,-0.40584 -0.1946,-0.60518 -0.0469,-0.1307 -0.0778,-0.25395 -0.0955,-0.369 -1.22361,-1.39259 -2.64257,-3.62478 -4.0675,-7.15932 -6.32213,-15.6821 9.08016,-23.02126 6.51921,-21.97777 -3.55266,1.44759 -8.43336,1.44588 -11.69075,0.13798 -1.18022,-0.47388 -5.403538,-1.45164 -7.602247,-1.45164 z"
       sodipodi:nodetypes="sccccccssscccccccsssss" />
  </g>
</svg>
